REM DIRINDEX 1\2\5,1\2\6,1\2\7,1\2\8,1\3\9,1\3\10,1\3\11,1\4\12,1\4\13,1\4\14,1\4\15,1\4\16
REM DIRNAME cjc034,folder01,folder02,folder03,folder04,folder05,folder06,folder07,folder08,folder09,folder10,folder11,folder12,folder13,folder14,folder15
TITLE ""
FILE "1200_sec02_0518_0526.mp3" MP3
  TRACK 01 AUDIO
    TITLE "0:"
    INDEX 01 00:00:00
  TRACK 02 AUDIO
    TITLE "12:cjc034_05716"
    INDEX 01 00:00:19
  TRACK 03 AUDIO
    TITLE "0:"
    INDEX 01 00:01:30
  TRACK 04 AUDIO
    TITLE "13:cjc034_05717"
    INDEX 01 00:01:66
  TRACK 05 AUDIO
    TITLE "0:"
    INDEX 01 00:04:17
  TRACK 06 AUDIO
    TITLE "14:cjc034_05718"
    INDEX 01 00:04:54
  TRACK 07 AUDIO
    TITLE "0:"
    INDEX 01 00:05:63
  TRACK 08 AUDIO
    TITLE "15:cjc034_05719"
    INDEX 01 00:06:26
  TRACK 09 AUDIO
    TITLE "0:"
    INDEX 01 00:10:06
  TRACK 10 AUDIO
    TITLE "12:cjc034_05720"
    INDEX 01 00:11:40
  TRACK 11 AUDIO
    TITLE "0:"
    INDEX 01 00:12:73
  TRACK 12 AUDIO
    TITLE "13:cjc034_05721"
    INDEX 01 00:13:30
  TRACK 13 AUDIO
    TITLE "0:"
    INDEX 01 00:16:14
  TRACK 14 AUDIO
    TITLE "14:cjc034_05722"
    INDEX 01 00:16:48
  TRACK 15 AUDIO
    TITLE "0:"
    INDEX 01 00:18:03
  TRACK 16 AUDIO
    TITLE "15:cjc034_05723"
    INDEX 01 00:18:37
  TRACK 17 AUDIO
    TITLE "0:"
    INDEX 01 00:24:12
  TRACK 18 AUDIO
    TITLE "12:cjc034_05724"
    INDEX 01 00:25:45
  TRACK 19 AUDIO
    TITLE "0:"
    INDEX 01 00:26:66
  TRACK 20 AUDIO
    TITLE "13:cjc034_05725"
    INDEX 01 00:27:22
  TRACK 21 AUDIO
    TITLE "0:"
    INDEX 01 00:32:54
  TRACK 22 AUDIO
    TITLE "14:cjc034_05726"
    INDEX 01 00:33:13
  TRACK 23 AUDIO
    TITLE "0:"
    INDEX 01 00:34:36
  TRACK 24 AUDIO
    TITLE "15:cjc034_05727"
    INDEX 01 00:34:65
  TRACK 25 AUDIO
    TITLE "0:"
    INDEX 01 00:38:69
  TRACK 26 AUDIO
    TITLE "12:cjc034_05728"
    INDEX 01 00:40:28
  TRACK 27 AUDIO
    TITLE "0:"
    INDEX 01 00:41:36
  TRACK 28 AUDIO
    TITLE "13:cjc034_05729"
    INDEX 01 00:41:67
  TRACK 29 AUDIO
    TITLE "0:"
    INDEX 01 00:45:43
  TRACK 30 AUDIO
    TITLE "14:cjc034_05730"
    INDEX 01 00:46:00
  TRACK 31 AUDIO
    TITLE "0:"
    INDEX 01 00:47:09
  TRACK 32 AUDIO
    TITLE "15:cjc034_05731"
    INDEX 01 00:47:44
  TRACK 33 AUDIO
    TITLE "0:"
    INDEX 01 00:51:48
  TRACK 34 AUDIO
    TITLE "12:cjc034_05732"
    INDEX 01 00:53:08
  TRACK 35 AUDIO
    TITLE "0:"
    INDEX 01 00:54:21
  TRACK 36 AUDIO
    TITLE "13:cjc034_05733"
    INDEX 01 00:54:54
  TRACK 37 AUDIO
    TITLE "0:"
    INDEX 01 00:56:53
  TRACK 38 AUDIO
    TITLE "14:cjc034_05734"
    INDEX 01 00:57:17
  TRACK 39 AUDIO
    TITLE "0:"
    INDEX 01 00:58:30
  TRACK 40 AUDIO
    TITLE "15:cjc034_05735"
    INDEX 01 00:58:64
  TRACK 41 AUDIO
    TITLE "0:"
    INDEX 01 01:02:18
  TRACK 42 AUDIO
    TITLE "12:cjc034_05736"
    INDEX 01 01:03:51
  TRACK 43 AUDIO
    TITLE "0:"
    INDEX 01 01:04:56
  TRACK 44 AUDIO
    TITLE "13:cjc034_05737"
    INDEX 01 01:05:15
  TRACK 45 AUDIO
    TITLE "0:"
    INDEX 01 01:09:63
  TRACK 46 AUDIO
    TITLE "14:cjc034_05738"
    INDEX 01 01:10:20
  TRACK 47 AUDIO
    TITLE "0:"
    INDEX 01 01:11:23
  TRACK 48 AUDIO
    TITLE "15:cjc034_05739"
    INDEX 01 01:11:58
  TRACK 49 AUDIO
    TITLE "0:"
    INDEX 01 01:14:53
  TRACK 50 AUDIO
    TITLE "12:cjc034_05740"
    INDEX 01 01:16:12
  TRACK 51 AUDIO
    TITLE "0:"
    INDEX 01 01:17:41
  TRACK 52 AUDIO
    TITLE "13:cjc034_05741"
    INDEX 01 01:17:73
  TRACK 53 AUDIO
    TITLE "0:"
    INDEX 01 01:20:44
  TRACK 54 AUDIO
    TITLE "14:cjc034_05742"
    INDEX 01 01:21:02
  TRACK 55 AUDIO
    TITLE "0:"
    INDEX 01 01:22:29
  TRACK 56 AUDIO
    TITLE "15:cjc034_05743"
    INDEX 01 01:22:64
  TRACK 57 AUDIO
    TITLE "0:"
    INDEX 01 01:27:14
  TRACK 58 AUDIO
    TITLE "12:cjc034_05744"
    INDEX 01 01:28:45
  TRACK 59 AUDIO
    TITLE "0:"
    INDEX 01 01:29:54
  TRACK 60 AUDIO
    TITLE "13:cjc034_05745"
    INDEX 01 01:30:11
  TRACK 61 AUDIO
    TITLE "0:"
    INDEX 01 01:33:46
  TRACK 62 AUDIO
    TITLE "14:cjc034_05746"
    INDEX 01 01:34:06
  TRACK 63 AUDIO
    TITLE "0:"
    INDEX 01 01:35:14
  TRACK 64 AUDIO
    TITLE "15:cjc034_05747"
    INDEX 01 01:35:49
  TRACK 65 AUDIO
    TITLE "0:"
    INDEX 01 01:39:33
  TRACK 66 AUDIO
    TITLE "12:cjc034_05748"
    INDEX 01 01:40:68
  TRACK 67 AUDIO
    TITLE "0:"
    INDEX 01 01:41:69
  TRACK 68 AUDIO
    TITLE "13:cjc034_05749"
    INDEX 01 01:42:26
  TRACK 69 AUDIO
    TITLE "0:"
    INDEX 01 01:44:24
  TRACK 70 AUDIO
    TITLE "14:cjc034_05750"
    INDEX 01 01:44:60
  TRACK 71 AUDIO
    TITLE "0:"
    INDEX 01 01:45:61
  TRACK 72 AUDIO
    TITLE "15:cjc034_05751"
    INDEX 01 01:46:18
  TRACK 73 AUDIO
    TITLE "0:"
    INDEX 01 01:51:40
